<svg width="180" height="36" viewBox="0,0,180,36" xmlns="http://www.w3.org/2000/svg"><svg ti:v="1" width="16" height="16" viewBox="0,0,16,16" xmlns="http://www.w3.org/2000/svg" xmlns:ti="urn:schemas-jetbrains-com:tisvg" x="0" y="0"><g><path d="M0,0L16,0L16,16L0,16Z" fill="#FFFFFF" opacity="0" /><linearGradient id="F10" x1="0.5" y1="0.00164285714285714" x2="0.5" y2="0.995642857142857"><stop offset="0" stop-color="#C28C21" /><stop offset="1" stop-color="#634933" /></linearGradient><path d="M1,15L1,3L7.586,3L9.586,1L16,1L16,15L1,15Z" fill="url(#F10)" /><linearGradient id="F20" x1="0.5" y1="0.00166666666666668" x2="0.5" y2="0.995666666666667"><stop offset="0" stop-color="#FFE9BD" /><stop offset="1" stop-color="#D4A24C" /></linearGradient><path d="M15,14L15,2L10,2L8,4L2,4L2,14L15,14Z" fill="url(#F20)" /><linearGradient id="F30" x1="0.5" y1="0.00171428571428567" x2="0.5" y2="0.995714285714286"><stop offset="0" stop-color="#B88143" /><stop offset="1" stop-color="#8A4717" /></linearGradient><path d="M3,6L14,6L14,13L3,13Z" fill="url(#F30)" /><linearGradient id="F40" x1="0.5" y1="0" x2="0.5" y2="1"><stop offset="0" stop-color="#663887" /><stop offset="1" stop-color="#260A3B" /></linearGradient><path fill-rule="evenodd" d="M8.646,6L4.696,8.863L2.06,7.338L0,8.68L0,13.32L2.06,14.662L4.696,13.137L8.646,16L9.269,16L12,14.206L12,7.794L9.269,6L8.646,6Z" fill="url(#F40)" /><linearGradient id="F50" x1="0.5" y1="0" x2="0.5" y2="1"><stop offset="0" stop-color="#EBCFFF" /><stop offset="1" stop-color="#C982FF" /></linearGradient><path fill-rule="evenodd" d="M8.97,7L4.757,10.054L2.091,8.511L1,9.222L1,12.778L2.091,13.489L4.757,11.946L8.97,15L11,13.667L11,8.333L8.97,7Z" fill="url(#F50)" /><linearGradient id="F60" x1="0.499927315016718" y1="0" x2="0.499927315016718" y2="1"><stop offset="0" stop-color="#663887" /><stop offset="1" stop-color="#260A3B" /></linearGradient><path fill-rule="evenodd" d="M2.091,11.987L2.091,10.013L3.452,11ZM2.091,11.987M8.9699999999999989,12.492L8.9699999999999989,9.508L6.392,11ZM8.9699999999999989,12.492" fill="url(#F60)" /></g></svg><svg ti:v="1" width="16" height="16" viewBox="0,0,16,16" xmlns="http://www.w3.org/2000/svg" xmlns:ti="urn:schemas-jetbrains-com:tisvg" x="18" y="0"><g><path fill-rule="evenodd" d="M0,0L16,0L16,16L0,16Z" fill="#FFFFFF" opacity="0" /><linearGradient id="F11" x1="0.499999" y1="0.01193" x2="0.499999" y2="1"><stop offset="0" stop-color="#566980" /><stop offset="1" stop-color="#2D3641" /></linearGradient><path fill-rule="evenodd" d="M15,14L1,14L1,1L15,1L15,14Z" fill="url(#F11)" /><linearGradient id="F21" x1="0.0118923" y1="0.500003" x2="1.00007" y2="0.500003"><stop offset="0" stop-color="#FFFFFF" /><stop offset="1" stop-color="#A7BADB" /></linearGradient><path fill-rule="evenodd" d="M2,13L14,13L14,5L2,5L2,13Z" fill="url(#F21)" /><linearGradient id="F31" x1="0.499999" y1="0.0103804" x2="0.499999" y2="1.00022"><stop offset="0" stop-color="#FFFFFF" /><stop offset="1" stop-color="#A7BADB" /></linearGradient><path fill-rule="evenodd" d="M13,12L3,12L3,5L13,5L13,12Z" fill="url(#F31)" /><linearGradient id="F41" x1="-6.35783E-07" y1="0.50001" x2="1" y2="0.50001"><stop offset="0" stop-color="#6D97E6" /><stop offset="1" stop-color="#2F62C7" /></linearGradient><path fill-rule="evenodd" d="M14,5L2,5L2,2L14,2L14,5Z" fill="url(#F41)" /></g></svg><svg ti:v="1" width="16" height="16" viewBox="0,0,16,16" xmlns="http://www.w3.org/2000/svg" xmlns:ti="urn:schemas-jetbrains-com:tisvg" x="36" y="0"><g><path fill-rule="evenodd" d="M0,0L16,0L16,16L0,16Z" fill="#FFFFFF" opacity="0" /><linearGradient id="F12" x1="0.499999" y1="0" x2="0.499999" y2="1"><stop offset="0" stop-color="#E9FF5E" /><stop offset="1" stop-color="#C1DD00" /></linearGradient><path fill-rule="evenodd" d="M6.8379999999999939,1L6.6839999999999975,1.0509999999999877C5.4849999999999994,1.4499999999999886,3.284000000000006,2.9379999999999882,3.0250000000000057,5.7930000000000064L2,6.4560000000000173L2,8.5439999999999827L3.0250000000000057,9.2069999999999936C3.284000000000006,12.062000000000012,5.4849999999999994,13.550000000000011,6.6839999999999975,13.949000000000012L6.8379999999999939,14L9.1620000000000061,14L9.3160000000000025,13.949000000000012C10.513999999999996,13.550000000000011,12.716999999999999,12.062000000000012,12.974999999999994,9.2069999999999936L14,8.5439999999999827L14,6.4560000000000173L12.974999999999994,5.7930000000000064C12.716999999999999,2.9379999999999882,10.513999999999996,1.4499999999999886,9.3160000000000025,1.0509999999999877L9.1620000000000061,1L6.8379999999999939,1Z" fill="url(#F12)" /><path fill-rule="evenodd" d="M11.5,7L11.5,8L10.5,9C10.5,11,9,12,9,12L9,13C9,13,12,12,12,8.646000000000015L13,8L13,7L12,6.353999999999985C12,3,9,2,9,2L9,3C9,3,10.5,4,10.5,6M5.5,6C5.5,4,7,3,7,3L7,2C7,2,4,3,4,6.353999999999985L3,7L3,8L4,8.646000000000015C4,12,7,13,7,13L7,12C7,12,5.5,11,5.5,9L4.5,8L4.5,7L5.5,6Z" fill="#495E00" /></g></svg><svg ti:v="1" width="16" height="16" viewBox="0,0,16,16" xmlns="http://www.w3.org/2000/svg" xmlns:ti="urn:schemas-jetbrains-com:tisvg" x="54" y="0"><g><path fill-rule="evenodd" d="M0,0L16,0L16,16L0,16Z" fill="#FFFFFF" opacity="0" /><path fill-rule="evenodd" d="M7,13L7,8L3.5859999999999985,8L6.5859999999999985,5L14.414000000000001,5L11.414000000000001,8L10,8L10,10L14.414000000000001,10L11.414000000000001,13L7,13Z" fill="#324A63" /><linearGradient id="F23" x1="0.499996" y1="0" x2="0.499996" y2="1.00001"><stop offset="0" stop-color="#1C568E" /><stop offset="1" stop-color="#000E4F" /></linearGradient><path fill-rule="evenodd" d="M16,12.414000000000001L16,11.585999999999999L13,8.5859999999999985L8.5859999999999985,13L11.585999999999999,16L12.414000000000001,16L16,12.414000000000001Z" fill="url(#F23)" /><linearGradient id="F33" x1="0.499996" y1="0" x2="0.499996" y2="1.00002"><stop offset="0" stop-color="#720872" /><stop offset="1" stop-color="#540A54" /></linearGradient><path fill-rule="evenodd" d="M16,6.5859999999999985L13,3.5859999999999985L8.5859999999999985,8L12,11.414000000000001L16,7.4140000000000015L16,6.5859999999999985Z" fill="url(#F33)" /><linearGradient id="F43" x1="0.5" y1="1.2207E-05" x2="0.5" y2="1.00001"><stop offset="0" stop-color="#EBACF6" /><stop offset="1" stop-color="#DA6EDB" /></linearGradient><path fill-rule="evenodd" d="M13,5L15,7L12,10L10,8L13,5Z" fill="url(#F43)" /><linearGradient id="F53" x1="0.5" y1="1.2207E-05" x2="0.5" y2="1.00001"><stop offset="0" stop-color="#9CCDFD" /><stop offset="1" stop-color="#5D9AD8" /></linearGradient><path fill-rule="evenodd" d="M13,10L15,12L12,15L10,13L13,10Z" fill="url(#F53)" /><linearGradient id="F63" x1="0.500002" y1="5.86087E-06" x2="0.500002" y2="1.00001"><stop offset="0" stop-color="#6E4D00" /><stop offset="1" stop-color="#422D00" /></linearGradient><path fill-rule="evenodd" d="M0,5.5859999999999985L0,6.4140000000000015L4,10.414000000000001L10.414000000000001,4L6.4140000000000015,0L5.5859999999999985,0L0,5.5859999999999985Z" fill="url(#F63)" /><linearGradient id="F73" x1="0.499999" y1="7.62939E-06" x2="0.499999" y2="1.00001"><stop offset="0" stop-color="#F6DF85" /><stop offset="1" stop-color="#EDB62A" /></linearGradient><path fill-rule="evenodd" d="M4,9L1,6L6,1L9,4L4,9Z" fill="url(#F73)" /><path fill-rule="evenodd" d="M11,7L11,6L7,6L7,7L8,7L8,12L11,12L11,11L9,11L9,7L11,7Z" fill="#FFFFFF" /></g></svg><svg width="16" height="16" viewBox="0,0,16,16" x="72" y="0"><svg ti:v="1" width="16" height="16" viewBox="0,0,16,16" xmlns="http://www.w3.org/2000/svg" xmlns:ti="urn:schemas-jetbrains-com:tisvg"><g><path fill-rule="evenodd" d="M0,0L16,0L16,16L0,16Z" fill="#FFFFFF" opacity="0" /><path fill-rule="evenodd" d="M7,13L7,8L3.5859999999999985,8L6.5859999999999985,5L14.414000000000001,5L11.414000000000001,8L10,8L10,10L14.414000000000001,10L11.414000000000001,13L7,13Z" fill="#324A63" /><linearGradient id="F204" x1="0.499996" y1="0" x2="0.499996" y2="1.00001"><stop offset="0" stop-color="#1C568E" /><stop offset="1" stop-color="#000E4F" /></linearGradient><path fill-rule="evenodd" d="M16,12.414000000000001L16,11.585999999999999L13,8.5859999999999985L8.5859999999999985,13L11.585999999999999,16L12.414000000000001,16L16,12.414000000000001Z" fill="url(#F204)" /><linearGradient id="F304" x1="0.499996" y1="0" x2="0.499996" y2="1.00002"><stop offset="0" stop-color="#720872" /><stop offset="1" stop-color="#540A54" /></linearGradient><path fill-rule="evenodd" d="M16,6.5859999999999985L13,3.5859999999999985L8.5859999999999985,8L12,11.414000000000001L16,7.4140000000000015L16,6.5859999999999985Z" fill="url(#F304)" /><linearGradient id="F404" x1="0.5" y1="1.2207E-05" x2="0.5" y2="1.00001"><stop offset="0" stop-color="#EBACF6" /><stop offset="1" stop-color="#DA6EDB" /></linearGradient><path fill-rule="evenodd" d="M13,5L15,7L12,10L10,8L13,5Z" fill="url(#F404)" /><linearGradient id="F504" x1="0.5" y1="1.2207E-05" x2="0.5" y2="1.00001"><stop offset="0" stop-color="#9CCDFD" /><stop offset="1" stop-color="#5D9AD8" /></linearGradient><path fill-rule="evenodd" d="M13,10L15,12L12,15L10,13L13,10Z" fill="url(#F504)" /><linearGradient id="F604" x1="0.500002" y1="5.86087E-06" x2="0.500002" y2="1.00001"><stop offset="0" stop-color="#6E4D00" /><stop offset="1" stop-color="#422D00" /></linearGradient><path fill-rule="evenodd" d="M0,5.5859999999999985L0,6.4140000000000015L4,10.414000000000001L10.414000000000001,4L6.4140000000000015,0L5.5859999999999985,0L0,5.5859999999999985Z" fill="url(#F604)" /><linearGradient id="F704" x1="0.499999" y1="7.62939E-06" x2="0.499999" y2="1.00001"><stop offset="0" stop-color="#F6DF85" /><stop offset="1" stop-color="#EDB62A" /></linearGradient><path fill-rule="evenodd" d="M4,9L1,6L6,1L9,4L4,9Z" fill="url(#F704)" /><path fill-rule="evenodd" d="M11,7L11,6L7,6L7,7L8,7L8,12L11,12L11,11L9,11L9,7L11,7Z" fill="#FFFFFF" /></g></svg><svg ti:v="1" width="16" height="16" viewBox="0,0,16,16" xmlns="http://www.w3.org/2000/svg" xmlns:ti="urn:schemas-jetbrains-com:tisvg"><g><path fill-rule="evenodd" d="M0,0L16,0L16,16L0,16Z" fill="#FFFFFF" opacity="0" /><linearGradient id="F114" x1="0.5" y1="1.01725E-05" x2="0.5" y2="1.00001"><stop offset="0" stop-color="#856000" /><stop offset="1" stop-color="#562800" /></linearGradient><path fill-rule="evenodd" d="M8,16L0,16L0,10L8,10L8,16Z" fill="url(#F114)" /><linearGradient id="F214" x1="0.5" y1="1.52588E-05" x2="0.5" y2="1.00002"><stop offset="0" stop-color="#FFEF8C" /><stop offset="1" stop-color="#EFDB72" /></linearGradient><path fill-rule="evenodd" d="M7,11L1,11L1,15L7,15L7,11Z" fill="url(#F214)" /><linearGradient id="F314" x1="0.5" y1="2.03451E-05" x2="0.5" y2="1.00002"><stop offset="0" stop-color="#856000" /><stop offset="1" stop-color="#562800" /></linearGradient><path fill-rule="evenodd" d="M1,11L4,13L7,11L7,12L4,14L1,12L1,11Z" fill="url(#F314)" /></g></svg></svg><svg ti:v="1" width="16" height="16" viewBox="0,0,16,16" xmlns="http://www.w3.org/2000/svg" xmlns:ti="urn:schemas-jetbrains-com:tisvg" x="90" y="0"><g><path fill-rule="evenodd" d="M0,0L16,0L16,16L0,16Z" fill="#FFFFFF" opacity="0" /><linearGradient id="F15" x1="0.5" y1="5.54865E-06" x2="0.5" y2="1.00001"><stop offset="0" stop-color="#800080" /><stop offset="1" stop-color="#5B005B" /></linearGradient><path fill-rule="evenodd" d="M5,12.25L5,6.7510000000000048L10,4L15,6.7510000000000048L15,12.25L10,15L5,12.25Z" fill="url(#F15)" /><linearGradient id="F25" x1="0.0278301" y1="0.500025" x2="1.01539" y2="0.500025"><stop offset="0" stop-color="#FD59FF" /><stop offset="1" stop-color="#FF9CFF" /></linearGradient><path fill-rule="evenodd" d="M6,7.8009999999999877L6,11.658999999999992L10,13.858000000000004L10,10L6,7.8009999999999877Z" fill="url(#F25)" /><linearGradient id="F35" x1="0.027832" y1="0.500025" x2="1.01539" y2="0.500025"><stop offset="0" stop-color="#FD33FF" /><stop offset="1" stop-color="#FFA3FF" /></linearGradient><path fill-rule="evenodd" d="M14,7.8009999999999877L10,10L10,13.858000000000004L14,11.658999999999992L14,7.8009999999999877Z" fill="url(#F35)" /><path fill-rule="evenodd" d="M13.378900000000002,7L9.9998999999999967,8.8580000000000041L6.620900000000006,7L5.9998999999999967,7.342000000000013L5.9998999999999967,7.8009999999999877L9.9998999999999967,10L13.999899999999997,7.8009999999999877L13.999899999999997,7.342000000000013L13.378900000000002,7Z" fill="#FFE6FF" /><linearGradient id="F55" x1="0.5" y1="0.0277584" x2="0.5" y2="1.01553"><stop offset="0" stop-color="#FD54FF" /><stop offset="1" stop-color="#FFBFFF" /></linearGradient><path fill-rule="evenodd" d="M10,8.8580000000000041L13.379000000000005,7L10,5.1419999999999959L6.6209999999999951,7L10,8.8580000000000041Z" fill="url(#F55)" /><path fill-rule="evenodd" d="M5,1L5,0L2,0L2,1L0,1L0,8L2,8L2,9L5,9L5,8L7,8L7,1L5,1Z" fill="#877000" /><linearGradient id="F75" x1="0.499998" y1="-0.0178484" x2="0.499998" y2="1.03587"><stop offset="0" stop-color="#FFFDDD" /><stop offset="1" stop-color="#FFF45E" /></linearGradient><path fill-rule="evenodd" d="M6,6L5,6L5,7L6,7M2,6L1,6L1,7L2,7M6,2L5,2L5,3L6,3M2,2L1,2L1,3L2,3M6,4L6,5L5,5L5,6L4,6L4,8L3,8L3,6L2,6L2,5L1,5L1,4L2,4L2,3L3,3L3,1L4,1L4,3L5,3L5,4L6,4Z" fill="url(#F75)" /><path fill-rule="evenodd" d="M3,5L4,5L4,4L3,4L3,5Z" fill="#877000" /></g></svg><svg ti:v="1" width="16" height="16" viewBox="0,0,16,16" xmlns="http://www.w3.org/2000/svg" xmlns:ti="urn:schemas-jetbrains-com:tisvg" x="108" y="0"><g><path fill-rule="evenodd" d="M0,0L16,0L16,16L0,16Z" fill="#FFFFFF" opacity="0" /><linearGradient id="F16" x1="-6.35783E-07" y1="0.5" x2="1" y2="0.5"><stop offset="0" stop-color="#5D5E62" /><stop offset="1" stop-color="#282B2D" /></linearGradient><path fill-rule="evenodd" d="M2,15L14,15L14,4L2,4L2,15Z" fill="url(#F16)" /><path fill-rule="evenodd" d="M13,4L3,4L3,14L13,14L13,4Z" fill="#FFFFFF" /><linearGradient id="F36" x1="-9.53674E-07" y1="0.5" x2="1" y2="0.5"><stop offset="0" stop-color="#F2F9FF" /><stop offset="1" stop-color="#CCEBFF" /></linearGradient><path fill-rule="evenodd" d="M4,13L12,13L12,4L4,4L4,13Z" fill="url(#F36)" /><linearGradient id="F46" x1="-1.27157E-06" y1="0.5" x2="1" y2="0.5"><stop offset="0" stop-color="#006293" /><stop offset="1" stop-color="#00214F" /></linearGradient><path fill-rule="evenodd" d="M7,10L5,10L5,11L7,11M11,10L8,10L8,11L11,11M7,6L5,6L5,7L7,7M11,7L8,7L8,6L11,6M7,8L5,8L5,9L7,9M11,9L8,9L8,8L11,8L11,9Z" fill="url(#F46)" /><linearGradient id="F56" x1="0.499999" y1="0" x2="0.499999" y2="1"><stop offset="0" stop-color="#003D62" /><stop offset="1" stop-color="#00144F" /></linearGradient><path fill-rule="evenodd" d="M2,1L2,4L3,4L14,4L14,1L2,1Z" fill="url(#F56)" /><linearGradient id="F66" x1="-7.62939E-07" y1="0.5" x2="0.993293" y2="0.5"><stop offset="0" stop-color="#33D6FF" /><stop offset="1" stop-color="#009CFF" /></linearGradient><path fill-rule="evenodd" d="M3,4L13,4L13,2L3,2L3,4Z" fill="url(#F66)" /></g></svg><svg width="16" height="16" viewBox="0,0,16,16" x="126" y="0"><svg ti:v="1" width="16" height="16" viewBox="0,0,16,16" xmlns="http://www.w3.org/2000/svg" xmlns:ti="urn:schemas-jetbrains-com:tisvg"><g><path fill-rule="evenodd" d="M0,0L16,0L16,16L0,16Z" fill="#FFFFFF" opacity="0" /><linearGradient id="F107" x1="0.499999" y1="4.69501E-06" x2="0.499999" y2="1"><stop offset="0" stop-color="#800080" /><stop offset="1" stop-color="#5B005B" /></linearGradient><path fill-rule="evenodd" d="M2,4.160000000000025L2,10.841000000000008L7.7420000000000044,14L8.2579999999999956,14L14,10.841000000000008L14,4.160000000000025L8.2579999999999956,1L7.7420000000000044,1L2,4.160000000000025Z" fill="url(#F107)" /><linearGradient id="F207" x1="0.0278305" y1="0.5" x2="1.01539" y2="0.5"><stop offset="0" stop-color="#FD59FF" /><stop offset="1" stop-color="#FF9CFF" /></linearGradient><path fill-rule="evenodd" d="M3,5.25L3,10.25L8,13L8,8L3,5.25Z" fill="url(#F207)" /><linearGradient id="F307" x1="0.0278305" y1="0.5" x2="1.01539" y2="0.5"><stop offset="0" stop-color="#FD33FF" /><stop offset="1" stop-color="#FFA3FF" /></linearGradient><path fill-rule="evenodd" d="M13,5.25L8,8L8,13L13,10.25L13,5.25Z" fill="url(#F307)" /><path fill-rule="evenodd" d="M12.544899999999998,4.5L7.9998999999999967,7L3.454899999999995,4.5L2.9998999999999967,4.7509999999999764L2.9998999999999967,5.25L7.9998999999999967,8L12.999899999999997,5.25L12.999899999999997,4.7509999999999764L12.544899999999998,4.5Z" fill="#FFFFFF" /><linearGradient id="F507" x1="0.499999" y1="0.0277466" x2="0.499999" y2="1.01531"><stop offset="0" stop-color="#FD54FF" /><stop offset="1" stop-color="#FFBFFF" /></linearGradient><path fill-rule="evenodd" d="M8,7L12.545000000000002,4.5L8,2L3.4549999999999983,4.5L8,7Z" fill="url(#F507)" /></g></svg><svg ti:v="1" width="16" height="16" viewBox="0,0,16,16" xmlns="http://www.w3.org/2000/svg" xmlns:ti="urn:schemas-jetbrains-com:tisvg"><g><path fill-rule="evenodd" d="M0,0L16,0L16,16L0,16Z" fill="#FFFFFF" opacity="0" /><linearGradient id="F117" x1="0.5" y1="0.0162048" x2="0.5" y2="1.00555"><stop offset="0" stop-color="#776004" /><stop offset="1" stop-color="#443400" /></linearGradient><path fill-rule="evenodd" d="M7,16L0,16L0,10L7,10L7,16Z" fill="url(#F117)" /><linearGradient id="F217" x1="0" y1="0.500015" x2="1" y2="0.500015"><stop offset="0" stop-color="#D6B672" /><stop offset="0.31901800632476807" stop-color="#FDD89C" /><stop offset="1" stop-color="#C36D2A" /></linearGradient><path fill-rule="evenodd" d="M6,15L1,15L1,11L6,11L6,15Z" fill="url(#F217)" /><path fill-rule="evenodd" d="M3,14L4,14L4,12L3,12L3,14Z" fill="#000000" /><linearGradient id="F417" x1="0" y1="0.500015" x2="1" y2="0.500015"><stop offset="0" stop-color="#939597" /><stop offset="1" stop-color="#57595B" /></linearGradient><path fill-rule="evenodd" d="M3,6C1.8950000000000102,6,1,6.89500000000001,1,8L1,10L6,10L6,8C6,6.89500000000001,5.10499999999999,6,4,6L3,6Z" fill="url(#F417)" /><path fill-rule="evenodd" d="M4,7L3,7L2,8L2,10L3,10L3,8L4,8L4,10L5,10L5,8L4,7Z" fill="#FFFFFF" /></g></svg><svg ti:v="1" width="16" height="16" viewBox="0,0,16,16" xmlns="http://www.w3.org/2000/svg" xmlns:ti="urn:schemas-jetbrains-com:tisvg"><g><path fill-rule="evenodd" d="M0,0L16,0L16,16L0,16Z" fill="#FFFFFF" opacity="0" /><linearGradient id="F127" x1="0.499996" y1="4.35965E-06" x2="0.499996" y2="1"><stop offset="0" stop-color="#805D00" /><stop offset="1" stop-color="#563D00" /></linearGradient><path fill-rule="evenodd" d="M12.086000000000013,9L9,12.086000000000013L9,12.913999999999987L12.086000000000013,16L12.913999999999987,16L16,12.913999999999987L16,12.086000000000013L12.913999999999987,9L12.086000000000013,9Z" fill="url(#F127)" /><linearGradient id="F227" x1="0.499994" y1="6.10352E-06" x2="0.499994" y2="1.00001"><stop offset="0" stop-color="#FFFF80" /><stop offset="1" stop-color="#FFC300" /></linearGradient><path fill-rule="evenodd" d="M12.5,10L15,12.5L12.5,15L10,12.5L12.5,10Z" fill="url(#F227)" /></g></svg></svg><svg ti:v="1" width="16" height="16" viewBox="0,0,16,16" xmlns="http://www.w3.org/2000/svg" xmlns:ti="urn:schemas-jetbrains-com:tisvg" x="144" y="0"><g><path fill-rule="evenodd" d="M0,0L16,0L16,16L0,16Z" fill="#FFFFFF" opacity="0" /><linearGradient id="F18" x1="0.499999" y1="4.69501E-06" x2="0.499999" y2="1"><stop offset="0" stop-color="#800080" /><stop offset="1" stop-color="#5B005B" /></linearGradient><path fill-rule="evenodd" d="M2,4.160000000000025L2,10.841000000000008L7.7420000000000044,14L8.2579999999999956,14L14,10.841000000000008L14,4.160000000000025L8.2579999999999956,1L7.7420000000000044,1L2,4.160000000000025Z" fill="url(#F18)" /><linearGradient id="F28" x1="0.0278305" y1="0.5" x2="1.01539" y2="0.5"><stop offset="0" stop-color="#FD59FF" /><stop offset="1" stop-color="#FF9CFF" /></linearGradient><path fill-rule="evenodd" d="M3,5.25L3,10.25L8,13L8,8L3,5.25Z" fill="url(#F28)" /><linearGradient id="F38" x1="0.0278305" y1="0.5" x2="1.01539" y2="0.5"><stop offset="0" stop-color="#FD33FF" /><stop offset="1" stop-color="#FFA3FF" /></linearGradient><path fill-rule="evenodd" d="M13,5.25L8,8L8,13L13,10.25L13,5.25Z" fill="url(#F38)" /><path fill-rule="evenodd" d="M12.544899999999998,4.5L7.9998999999999967,7L3.454899999999995,4.5L2.9998999999999967,4.7509999999999764L2.9998999999999967,5.25L7.9998999999999967,8L12.999899999999997,5.25L12.999899999999997,4.7509999999999764L12.544899999999998,4.5Z" fill="#FFFFFF" /><linearGradient id="F58" x1="0.499999" y1="0.0277466" x2="0.499999" y2="1.01531"><stop offset="0" stop-color="#FD54FF" /><stop offset="1" stop-color="#FFBFFF" /></linearGradient><path fill-rule="evenodd" d="M8,7L12.545000000000002,4.5L8,2L3.4549999999999983,4.5L8,7Z" fill="url(#F58)" /></g></svg><svg width="16" height="16" viewBox="0,0,16,16" x="162" y="0"><svg ti:v="1" width="16" height="16" viewBox="0,0,16,16" xmlns="http://www.w3.org/2000/svg" xmlns:ti="urn:schemas-jetbrains-com:tisvg"><g><path fill-rule="evenodd" d="M0,0L16,0L16,16L0,16Z" fill="#FFFFFF" opacity="0" /><linearGradient id="F109" x1="0.5" y1="5.54865E-06" x2="0.5" y2="1.00001"><stop offset="0" stop-color="#800080" /><stop offset="1" stop-color="#5B005B" /></linearGradient><path fill-rule="evenodd" d="M5,12.25L5,6.7510000000000048L10,4L15,6.7510000000000048L15,12.25L10,15L5,12.25Z" fill="url(#F109)" /><linearGradient id="F209" x1="0.0278301" y1="0.500025" x2="1.01539" y2="0.500025"><stop offset="0" stop-color="#FD59FF" /><stop offset="1" stop-color="#FF9CFF" /></linearGradient><path fill-rule="evenodd" d="M6,7.8009999999999877L6,11.658999999999992L10,13.858000000000004L10,10L6,7.8009999999999877Z" fill="url(#F209)" /><linearGradient id="F309" x1="0.027832" y1="0.500025" x2="1.01539" y2="0.500025"><stop offset="0" stop-color="#FD33FF" /><stop offset="1" stop-color="#FFA3FF" /></linearGradient><path fill-rule="evenodd" d="M14,7.8009999999999877L10,10L10,13.858000000000004L14,11.658999999999992L14,7.8009999999999877Z" fill="url(#F309)" /><path fill-rule="evenodd" d="M13.378900000000002,7L9.9998999999999967,8.8580000000000041L6.620900000000006,7L5.9998999999999967,7.342000000000013L5.9998999999999967,7.8009999999999877L9.9998999999999967,10L13.999899999999997,7.8009999999999877L13.999899999999997,7.342000000000013L13.378900000000002,7Z" fill="#FFE6FF" /><linearGradient id="F509" x1="0.5" y1="0.0277584" x2="0.5" y2="1.01553"><stop offset="0" stop-color="#FD54FF" /><stop offset="1" stop-color="#FFBFFF" /></linearGradient><path fill-rule="evenodd" d="M10,8.8580000000000041L13.379000000000005,7L10,5.1419999999999959L6.6209999999999951,7L10,8.8580000000000041Z" fill="url(#F509)" /><path fill-rule="evenodd" d="M5,1L5,0L2,0L2,1L0,1L0,8L2,8L2,9L5,9L5,8L7,8L7,1L5,1Z" fill="#877000" /><linearGradient id="F709" x1="0.499998" y1="-0.0178484" x2="0.499998" y2="1.03587"><stop offset="0" stop-color="#FFFDDD" /><stop offset="1" stop-color="#FFF45E" /></linearGradient><path fill-rule="evenodd" d="M6,6L5,6L5,7L6,7M2,6L1,6L1,7L2,7M6,2L5,2L5,3L6,3M2,2L1,2L1,3L2,3M6,4L6,5L5,5L5,6L4,6L4,8L3,8L3,6L2,6L2,5L1,5L1,4L2,4L2,3L3,3L3,1L4,1L4,3L5,3L5,4L6,4Z" fill="url(#F709)" /><path fill-rule="evenodd" d="M3,5L4,5L4,4L3,4L3,5Z" fill="#877000" /></g></svg><svg ti:v="1" width="16" height="16" viewBox="0,0,16,16" xmlns="http://www.w3.org/2000/svg" xmlns:ti="urn:schemas-jetbrains-com:tisvg"><g><path fill-rule="evenodd" d="M0,0L16,0L16,16L0,16Z" fill="#FFFFFF" opacity="0" /><linearGradient id="F119" x1="0" y1="0.500006" x2="1" y2="0.500006"><stop offset="0" stop-color="#6D9C00" /><stop offset="1" stop-color="#004466" /></linearGradient><path fill-rule="evenodd" d="M0,9C0,10.181000000000012,0.804000000000002,11.228000000000009,2,11.712999999999994L2,16L4.4139999999999873,16L6,14.413999999999987L6,12L5,12L5,11.712999999999994C6.1970000000000027,11.228000000000009,7,10.181000000000012,7,9L7,9C7,7.3460000000000036,5.4300000000000068,6,3.5,6L3.5,6C1.5699999999999932,6,0,7.3460000000000036,0,9Z" fill="url(#F119)" /><linearGradient id="F219" x1="0.5" y1="7.62939E-06" x2="0.5" y2="1.00001"><stop offset="0" stop-color="#DFFDAC" /><stop offset="1" stop-color="#B1F767" /></linearGradient><path fill-rule="evenodd" d="M1,9C1,9.96799999999999,1.8590000000000089,10.774000000000001,3,10.960000000000008L3,15L4,15L5,14L5,13L4,13L4,10.960000000000008C5.1409999999999911,10.774000000000001,6,9.96799999999999,6,9L6,9C6,7.89500000000001,4.881,7,3.5,7L3.5,7C2.1189999999999998,7,1,7.89500000000001,1,9Z" fill="url(#F219)" /><linearGradient id="F319" x1="0" y1="0.500031" x2="1" y2="0.500031"><stop offset="0" stop-color="#008E9C" /><stop offset="1" stop-color="#004466" /></linearGradient><path fill-rule="evenodd" d="M2,9C2,9.5529999999999973,2.671999999999997,10,3.5,10L3.5,10C4.328000000000003,10,5,9.5529999999999973,5,9L5,9C5,8.4480000000000075,4.328000000000003,8,3.5,8L3.5,8C2.671999999999997,8,2,8.4480000000000075,2,9Z" fill="url(#F319)" /></g></svg></svg><svg width="16" height="16" viewBox="0,0,16,16" x="0" y="18"><svg ti:v="1" width="16" height="16" viewBox="0,0,16,16" xmlns="http://www.w3.org/2000/svg" xmlns:ti="urn:schemas-jetbrains-com:tisvg"><g><path fill-rule="evenodd" d="M0,0L16,0L16,16L0,16Z" fill="#FFFFFF" opacity="0" /><linearGradient id="F1010" x1="-6.35783E-07" y1="0.5" x2="1" y2="0.5"><stop offset="0" stop-color="#5D5E62" /><stop offset="1" stop-color="#282B2D" /></linearGradient><path fill-rule="evenodd" d="M2,15L14,15L14,4L2,4L2,15Z" fill="url(#F1010)" /><path fill-rule="evenodd" d="M13,4L3,4L3,14L13,14L13,4Z" fill="#FFFFFF" /><linearGradient id="F3010" x1="-9.53674E-07" y1="0.5" x2="1" y2="0.5"><stop offset="0" stop-color="#F2F9FF" /><stop offset="1" stop-color="#CCEBFF" /></linearGradient><path fill-rule="evenodd" d="M4,13L12,13L12,4L4,4L4,13Z" fill="url(#F3010)" /><linearGradient id="F4010" x1="-1.27157E-06" y1="0.5" x2="1" y2="0.5"><stop offset="0" stop-color="#006293" /><stop offset="1" stop-color="#00214F" /></linearGradient><path fill-rule="evenodd" d="M7,10L5,10L5,11L7,11M11,10L8,10L8,11L11,11M7,6L5,6L5,7L7,7M11,7L8,7L8,6L11,6M7,8L5,8L5,9L7,9M11,9L8,9L8,8L11,8L11,9Z" fill="url(#F4010)" /><linearGradient id="F5010" x1="0.499999" y1="0" x2="0.499999" y2="1"><stop offset="0" stop-color="#003D62" /><stop offset="1" stop-color="#00144F" /></linearGradient><path fill-rule="evenodd" d="M2,1L2,4L3,4L14,4L14,1L2,1Z" fill="url(#F5010)" /><linearGradient id="F6010" x1="-7.62939E-07" y1="0.5" x2="0.993293" y2="0.5"><stop offset="0" stop-color="#33D6FF" /><stop offset="1" stop-color="#009CFF" /></linearGradient><path fill-rule="evenodd" d="M3,4L13,4L13,2L3,2L3,4Z" fill="url(#F6010)" /></g></svg><svg ti:v="1" width="16" height="16" viewBox="0,0,16,16" xmlns="http://www.w3.org/2000/svg" xmlns:ti="urn:schemas-jetbrains-com:tisvg"><g><path fill-rule="evenodd" d="M0,0L16,0L16,16L0,16Z" fill="#FFFFFF" opacity="0" /><linearGradient id="F1110" x1="0.499996" y1="4.35965E-06" x2="0.499996" y2="1"><stop offset="0" stop-color="#805D00" /><stop offset="1" stop-color="#563D00" /></linearGradient><path fill-rule="evenodd" d="M12.086000000000013,9L9,12.086000000000013L9,12.913999999999987L12.086000000000013,16L12.913999999999987,16L16,12.913999999999987L16,12.086000000000013L12.913999999999987,9L12.086000000000013,9Z" fill="url(#F1110)" /><linearGradient id="F2110" x1="0.499994" y1="6.10352E-06" x2="0.499994" y2="1.00001"><stop offset="0" stop-color="#FFFF80" /><stop offset="1" stop-color="#FFC300" /></linearGradient><path fill-rule="evenodd" d="M12.5,10L15,12.5L12.5,15L10,12.5L12.5,10Z" fill="url(#F2110)" /></g></svg></svg><svg width="16" height="16" viewBox="0,0,16,16" x="18" y="18"><svg ti:v="1" width="16" height="16" viewBox="0,0,16,16" xmlns="http://www.w3.org/2000/svg" xmlns:ti="urn:schemas-jetbrains-com:tisvg"><g><path fill-rule="evenodd" d="M0,0L16,0L16,16L0,16Z" fill="#FFFFFF" opacity="0" /><linearGradient id="F1011" x1="0.5" y1="5.54865E-06" x2="0.5" y2="1.00001"><stop offset="0" stop-color="#800080" /><stop offset="1" stop-color="#5B005B" /></linearGradient><path fill-rule="evenodd" d="M5,12.25L5,6.7510000000000048L10,4L15,6.7510000000000048L15,12.25L10,15L5,12.25Z" fill="url(#F1011)" /><linearGradient id="F2011" x1="0.0278301" y1="0.500025" x2="1.01539" y2="0.500025"><stop offset="0" stop-color="#FD59FF" /><stop offset="1" stop-color="#FF9CFF" /></linearGradient><path fill-rule="evenodd" d="M6,7.8009999999999877L6,11.658999999999992L10,13.858000000000004L10,10L6,7.8009999999999877Z" fill="url(#F2011)" /><linearGradient id="F3011" x1="0.027832" y1="0.500025" x2="1.01539" y2="0.500025"><stop offset="0" stop-color="#FD33FF" /><stop offset="1" stop-color="#FFA3FF" /></linearGradient><path fill-rule="evenodd" d="M14,7.8009999999999877L10,10L10,13.858000000000004L14,11.658999999999992L14,7.8009999999999877Z" fill="url(#F3011)" /><path fill-rule="evenodd" d="M13.378900000000002,7L9.9998999999999967,8.8580000000000041L6.620900000000006,7L5.9998999999999967,7.342000000000013L5.9998999999999967,7.8009999999999877L9.9998999999999967,10L13.999899999999997,7.8009999999999877L13.999899999999997,7.342000000000013L13.378900000000002,7Z" fill="#FFE6FF" /><linearGradient id="F5011" x1="0.5" y1="0.0277584" x2="0.5" y2="1.01553"><stop offset="0" stop-color="#FD54FF" /><stop offset="1" stop-color="#FFBFFF" /></linearGradient><path fill-rule="evenodd" d="M10,8.8580000000000041L13.379000000000005,7L10,5.1419999999999959L6.6209999999999951,7L10,8.8580000000000041Z" fill="url(#F5011)" /><path fill-rule="evenodd" d="M5,1L5,0L2,0L2,1L0,1L0,8L2,8L2,9L5,9L5,8L7,8L7,1L5,1Z" fill="#877000" /><linearGradient id="F7011" x1="0.499998" y1="-0.0178484" x2="0.499998" y2="1.03587"><stop offset="0" stop-color="#FFFDDD" /><stop offset="1" stop-color="#FFF45E" /></linearGradient><path fill-rule="evenodd" d="M6,6L5,6L5,7L6,7M2,6L1,6L1,7L2,7M6,2L5,2L5,3L6,3M2,2L1,2L1,3L2,3M6,4L6,5L5,5L5,6L4,6L4,8L3,8L3,6L2,6L2,5L1,5L1,4L2,4L2,3L3,3L3,1L4,1L4,3L5,3L5,4L6,4Z" fill="url(#F7011)" /><path fill-rule="evenodd" d="M3,5L4,5L4,4L3,4L3,5Z" fill="#877000" /></g></svg><svg ti:v="1" width="16" height="16" viewBox="0,0,16,16" xmlns="http://www.w3.org/2000/svg" xmlns:ti="urn:schemas-jetbrains-com:tisvg"><g><path fill-rule="evenodd" d="M0,0L16,0L16,16L0,16Z" fill="#FFFFFF" opacity="0" /><linearGradient id="F1111" x1="0.5" y1="0.0162048" x2="0.5" y2="1.00555"><stop offset="0" stop-color="#776004" /><stop offset="1" stop-color="#443400" /></linearGradient><path fill-rule="evenodd" d="M7,16L0,16L0,10L7,10L7,16Z" fill="url(#F1111)" /><linearGradient id="F2111" x1="0" y1="0.500015" x2="1" y2="0.500015"><stop offset="0" stop-color="#D6B672" /><stop offset="0.31901800632476807" stop-color="#FDD89C" /><stop offset="1" stop-color="#C36D2A" /></linearGradient><path fill-rule="evenodd" d="M6,15L1,15L1,11L6,11L6,15Z" fill="url(#F2111)" /><path fill-rule="evenodd" d="M3,14L4,14L4,12L3,12L3,14Z" fill="#000000" /><linearGradient id="F4111" x1="0" y1="0.500015" x2="1" y2="0.500015"><stop offset="0" stop-color="#939597" /><stop offset="1" stop-color="#57595B" /></linearGradient><path fill-rule="evenodd" d="M3,6C1.8950000000000102,6,1,6.89500000000001,1,8L1,10L6,10L6,8C6,6.89500000000001,5.10499999999999,6,4,6L3,6Z" fill="url(#F4111)" /><path fill-rule="evenodd" d="M4,7L3,7L2,8L2,10L3,10L3,8L4,8L4,10L5,10L5,8L4,7Z" fill="#FFFFFF" /></g></svg><svg ti:v="1" width="16" height="16" viewBox="0,0,16,16" xmlns="http://www.w3.org/2000/svg" xmlns:ti="urn:schemas-jetbrains-com:tisvg"><g><path fill-rule="evenodd" d="M0,0L16,0L16,16L0,16Z" fill="#FFFFFF" opacity="0" /><linearGradient id="F1211" x1="0.499996" y1="4.35965E-06" x2="0.499996" y2="1"><stop offset="0" stop-color="#805D00" /><stop offset="1" stop-color="#563D00" /></linearGradient><path fill-rule="evenodd" d="M12.086000000000013,9L9,12.086000000000013L9,12.913999999999987L12.086000000000013,16L12.913999999999987,16L16,12.913999999999987L16,12.086000000000013L12.913999999999987,9L12.086000000000013,9Z" fill="url(#F1211)" /><linearGradient id="F2211" x1="0.499994" y1="6.10352E-06" x2="0.499994" y2="1.00001"><stop offset="0" stop-color="#FFFF80" /><stop offset="1" stop-color="#FFC300" /></linearGradient><path fill-rule="evenodd" d="M12.5,10L15,12.5L12.5,15L10,12.5L12.5,10Z" fill="url(#F2211)" /></g></svg></svg><svg width="16" height="16" viewBox="0,0,16,16" x="36" y="18"><svg ti:v="1" width="16" height="16" viewBox="0,0,16,16" xmlns="http://www.w3.org/2000/svg" xmlns:ti="urn:schemas-jetbrains-com:tisvg"><g><path fill-rule="evenodd" d="M0,0L16,0L16,16L0,16Z" fill="#FFFFFF" opacity="0" /><linearGradient id="F1012" x1="0.5" y1="5.54865E-06" x2="0.5" y2="1.00001"><stop offset="0" stop-color="#800080" /><stop offset="1" stop-color="#5B005B" /></linearGradient><path fill-rule="evenodd" d="M5,12.25L5,6.7510000000000048L10,4L15,6.7510000000000048L15,12.25L10,15L5,12.25Z" fill="url(#F1012)" /><linearGradient id="F2012" x1="0.0278301" y1="0.500025" x2="1.01539" y2="0.500025"><stop offset="0" stop-color="#FD59FF" /><stop offset="1" stop-color="#FF9CFF" /></linearGradient><path fill-rule="evenodd" d="M6,7.8009999999999877L6,11.658999999999992L10,13.858000000000004L10,10L6,7.8009999999999877Z" fill="url(#F2012)" /><linearGradient id="F3012" x1="0.027832" y1="0.500025" x2="1.01539" y2="0.500025"><stop offset="0" stop-color="#FD33FF" /><stop offset="1" stop-color="#FFA3FF" /></linearGradient><path fill-rule="evenodd" d="M14,7.8009999999999877L10,10L10,13.858000000000004L14,11.658999999999992L14,7.8009999999999877Z" fill="url(#F3012)" /><path fill-rule="evenodd" d="M13.378900000000002,7L9.9998999999999967,8.8580000000000041L6.620900000000006,7L5.9998999999999967,7.342000000000013L5.9998999999999967,7.8009999999999877L9.9998999999999967,10L13.999899999999997,7.8009999999999877L13.999899999999997,7.342000000000013L13.378900000000002,7Z" fill="#FFE6FF" /><linearGradient id="F5012" x1="0.5" y1="0.0277584" x2="0.5" y2="1.01553"><stop offset="0" stop-color="#FD54FF" /><stop offset="1" stop-color="#FFBFFF" /></linearGradient><path fill-rule="evenodd" d="M10,8.8580000000000041L13.379000000000005,7L10,5.1419999999999959L6.6209999999999951,7L10,8.8580000000000041Z" fill="url(#F5012)" /><path fill-rule="evenodd" d="M5,1L5,0L2,0L2,1L0,1L0,8L2,8L2,9L5,9L5,8L7,8L7,1L5,1Z" fill="#877000" /><linearGradient id="F7012" x1="0.499998" y1="-0.0178484" x2="0.499998" y2="1.03587"><stop offset="0" stop-color="#FFFDDD" /><stop offset="1" stop-color="#FFF45E" /></linearGradient><path fill-rule="evenodd" d="M6,6L5,6L5,7L6,7M2,6L1,6L1,7L2,7M6,2L5,2L5,3L6,3M2,2L1,2L1,3L2,3M6,4L6,5L5,5L5,6L4,6L4,8L3,8L3,6L2,6L2,5L1,5L1,4L2,4L2,3L3,3L3,1L4,1L4,3L5,3L5,4L6,4Z" fill="url(#F7012)" /><path fill-rule="evenodd" d="M3,5L4,5L4,4L3,4L3,5Z" fill="#877000" /></g></svg><svg ti:v="1" width="16" height="16" viewBox="0,0,16,16" xmlns="http://www.w3.org/2000/svg" xmlns:ti="urn:schemas-jetbrains-com:tisvg"><g><path fill-rule="evenodd" d="M0,0L16,0L16,16L0,16Z" fill="#FFFFFF" opacity="0" /><linearGradient id="F1112" x1="0.5" y1="0.0162048" x2="0.5" y2="1.00555"><stop offset="0" stop-color="#776004" /><stop offset="1" stop-color="#443400" /></linearGradient><path fill-rule="evenodd" d="M7,16L0,16L0,10L7,10L7,16Z" fill="url(#F1112)" /><linearGradient id="F2112" x1="0" y1="0.500015" x2="1" y2="0.500015"><stop offset="0" stop-color="#D6B672" /><stop offset="0.31901800632476807" stop-color="#FDD89C" /><stop offset="1" stop-color="#C36D2A" /></linearGradient><path fill-rule="evenodd" d="M6,15L1,15L1,11L6,11L6,15Z" fill="url(#F2112)" /><path fill-rule="evenodd" d="M3,14L4,14L4,12L3,12L3,14Z" fill="#000000" /><linearGradient id="F4112" x1="0" y1="0.500015" x2="1" y2="0.500015"><stop offset="0" stop-color="#939597" /><stop offset="1" stop-color="#57595B" /></linearGradient><path fill-rule="evenodd" d="M3,6C1.8950000000000102,6,1,6.89500000000001,1,8L1,10L6,10L6,8C6,6.89500000000001,5.10499999999999,6,4,6L3,6Z" fill="url(#F4112)" /><path fill-rule="evenodd" d="M4,7L3,7L2,8L2,10L3,10L3,8L4,8L4,10L5,10L5,8L4,7Z" fill="#FFFFFF" /></g></svg></svg><svg width="16" height="16" viewBox="0,0,16,16" x="54" y="18"><svg ti:v="1" width="16" height="16" viewBox="0,0,16,16" xmlns="http://www.w3.org/2000/svg" xmlns:ti="urn:schemas-jetbrains-com:tisvg"><g><path fill-rule="evenodd" d="M0,0L16,0L16,16L0,16Z" fill="#FFFFFF" opacity="0" /><linearGradient id="F1013" x1="0.499999" y1="4.69501E-06" x2="0.499999" y2="1"><stop offset="0" stop-color="#800080" /><stop offset="1" stop-color="#5B005B" /></linearGradient><path fill-rule="evenodd" d="M2,4.160000000000025L2,10.841000000000008L7.7420000000000044,14L8.2579999999999956,14L14,10.841000000000008L14,4.160000000000025L8.2579999999999956,1L7.7420000000000044,1L2,4.160000000000025Z" fill="url(#F1013)" /><linearGradient id="F2013" x1="0.0278305" y1="0.5" x2="1.01539" y2="0.5"><stop offset="0" stop-color="#FD59FF" /><stop offset="1" stop-color="#FF9CFF" /></linearGradient><path fill-rule="evenodd" d="M3,5.25L3,10.25L8,13L8,8L3,5.25Z" fill="url(#F2013)" /><linearGradient id="F3013" x1="0.0278305" y1="0.5" x2="1.01539" y2="0.5"><stop offset="0" stop-color="#FD33FF" /><stop offset="1" stop-color="#FFA3FF" /></linearGradient><path fill-rule="evenodd" d="M13,5.25L8,8L8,13L13,10.25L13,5.25Z" fill="url(#F3013)" /><path fill-rule="evenodd" d="M12.544899999999998,4.5L7.9998999999999967,7L3.454899999999995,4.5L2.9998999999999967,4.7509999999999764L2.9998999999999967,5.25L7.9998999999999967,8L12.999899999999997,5.25L12.999899999999997,4.7509999999999764L12.544899999999998,4.5Z" fill="#FFFFFF" /><linearGradient id="F5013" x1="0.499999" y1="0.0277466" x2="0.499999" y2="1.01531"><stop offset="0" stop-color="#FD54FF" /><stop offset="1" stop-color="#FFBFFF" /></linearGradient><path fill-rule="evenodd" d="M8,7L12.545000000000002,4.5L8,2L3.4549999999999983,4.5L8,7Z" fill="url(#F5013)" /></g></svg><svg ti:v="1" width="16" height="16" viewBox="0,0,16,16" xmlns="http://www.w3.org/2000/svg" xmlns:ti="urn:schemas-jetbrains-com:tisvg"><g><path fill-rule="evenodd" d="M0,0L16,0L16,16L0,16Z" fill="#FFFFFF" opacity="0" /><linearGradient id="F1113" x1="0.5" y1="0.0162048" x2="0.5" y2="1.00555"><stop offset="0" stop-color="#776004" /><stop offset="1" stop-color="#443400" /></linearGradient><path fill-rule="evenodd" d="M7,16L0,16L0,10L7,10L7,16Z" fill="url(#F1113)" /><linearGradient id="F2113" x1="0" y1="0.500015" x2="1" y2="0.500015"><stop offset="0" stop-color="#D6B672" /><stop offset="0.31901800632476807" stop-color="#FDD89C" /><stop offset="1" stop-color="#C36D2A" /></linearGradient><path fill-rule="evenodd" d="M6,15L1,15L1,11L6,11L6,15Z" fill="url(#F2113)" /><path fill-rule="evenodd" d="M3,14L4,14L4,12L3,12L3,14Z" fill="#000000" /><linearGradient id="F4113" x1="0" y1="0.500015" x2="1" y2="0.500015"><stop offset="0" stop-color="#939597" /><stop offset="1" stop-color="#57595B" /></linearGradient><path fill-rule="evenodd" d="M3,6C1.8950000000000102,6,1,6.89500000000001,1,8L1,10L6,10L6,8C6,6.89500000000001,5.10499999999999,6,4,6L3,6Z" fill="url(#F4113)" /><path fill-rule="evenodd" d="M4,7L3,7L2,8L2,10L3,10L3,8L4,8L4,10L5,10L5,8L4,7Z" fill="#FFFFFF" /></g></svg></svg><svg width="16" height="16" viewBox="0,0,16,16" x="72" y="18"><svg ti:v="1" width="16" height="16" viewBox="0,0,16,16" xmlns="http://www.w3.org/2000/svg" xmlns:ti="urn:schemas-jetbrains-com:tisvg"><g><path fill-rule="evenodd" d="M0,0L16,0L16,16L0,16Z" fill="#FFFFFF" opacity="0" /><linearGradient id="F1014" x1="0.499999" y1="4.69501E-06" x2="0.499999" y2="1"><stop offset="0" stop-color="#800080" /><stop offset="1" stop-color="#5B005B" /></linearGradient><path fill-rule="evenodd" d="M2,4.160000000000025L2,10.841000000000008L7.7420000000000044,14L8.2579999999999956,14L14,10.841000000000008L14,4.160000000000025L8.2579999999999956,1L7.7420000000000044,1L2,4.160000000000025Z" fill="url(#F1014)" /><linearGradient id="F2014" x1="0.0278305" y1="0.5" x2="1.01539" y2="0.5"><stop offset="0" stop-color="#FD59FF" /><stop offset="1" stop-color="#FF9CFF" /></linearGradient><path fill-rule="evenodd" d="M3,5.25L3,10.25L8,13L8,8L3,5.25Z" fill="url(#F2014)" /><linearGradient id="F3014" x1="0.0278305" y1="0.5" x2="1.01539" y2="0.5"><stop offset="0" stop-color="#FD33FF" /><stop offset="1" stop-color="#FFA3FF" /></linearGradient><path fill-rule="evenodd" d="M13,5.25L8,8L8,13L13,10.25L13,5.25Z" fill="url(#F3014)" /><path fill-rule="evenodd" d="M12.544899999999998,4.5L7.9998999999999967,7L3.454899999999995,4.5L2.9998999999999967,4.7509999999999764L2.9998999999999967,5.25L7.9998999999999967,8L12.999899999999997,5.25L12.999899999999997,4.7509999999999764L12.544899999999998,4.5Z" fill="#FFFFFF" /><linearGradient id="F5014" x1="0.499999" y1="0.0277466" x2="0.499999" y2="1.01531"><stop offset="0" stop-color="#FD54FF" /><stop offset="1" stop-color="#FFBFFF" /></linearGradient><path fill-rule="evenodd" d="M8,7L12.545000000000002,4.5L8,2L3.4549999999999983,4.5L8,7Z" fill="url(#F5014)" /></g></svg><svg ti:v="1" width="16" height="16" viewBox="0,0,16,16" xmlns="http://www.w3.org/2000/svg" xmlns:ti="urn:schemas-jetbrains-com:tisvg"><g><path fill-rule="evenodd" d="M0,0L16,0L16,16L0,16Z" fill="#FFFFFF" opacity="0" /><linearGradient id="F1114" x1="0" y1="0.500006" x2="1" y2="0.500006"><stop offset="0" stop-color="#6D9C00" /><stop offset="1" stop-color="#004466" /></linearGradient><path fill-rule="evenodd" d="M0,9C0,10.181000000000012,0.804000000000002,11.228000000000009,2,11.712999999999994L2,16L4.4139999999999873,16L6,14.413999999999987L6,12L5,12L5,11.712999999999994C6.1970000000000027,11.228000000000009,7,10.181000000000012,7,9L7,9C7,7.3460000000000036,5.4300000000000068,6,3.5,6L3.5,6C1.5699999999999932,6,0,7.3460000000000036,0,9Z" fill="url(#F1114)" /><linearGradient id="F2114" x1="0.5" y1="7.62939E-06" x2="0.5" y2="1.00001"><stop offset="0" stop-color="#DFFDAC" /><stop offset="1" stop-color="#B1F767" /></linearGradient><path fill-rule="evenodd" d="M1,9C1,9.96799999999999,1.8590000000000089,10.774000000000001,3,10.960000000000008L3,15L4,15L5,14L5,13L4,13L4,10.960000000000008C5.1409999999999911,10.774000000000001,6,9.96799999999999,6,9L6,9C6,7.89500000000001,4.881,7,3.5,7L3.5,7C2.1189999999999998,7,1,7.89500000000001,1,9Z" fill="url(#F2114)" /><linearGradient id="F3114" x1="0" y1="0.500031" x2="1" y2="0.500031"><stop offset="0" stop-color="#008E9C" /><stop offset="1" stop-color="#004466" /></linearGradient><path fill-rule="evenodd" d="M2,9C2,9.5529999999999973,2.671999999999997,10,3.5,10L3.5,10C4.328000000000003,10,5,9.5529999999999973,5,9L5,9C5,8.4480000000000075,4.328000000000003,8,3.5,8L3.5,8C2.671999999999997,8,2,8.4480000000000075,2,9Z" fill="url(#F3114)" /></g></svg></svg><svg ti:v="1" width="16" height="16" viewBox="0,0,16,16" xmlns="http://www.w3.org/2000/svg" xmlns:ti="urn:schemas-jetbrains-com:tisvg" x="90" y="18"><g><path fill-rule="evenodd" d="M0,0L16,0L16,16L0,16Z" fill="#FFFFFF" opacity="0" /><linearGradient id="F115" x1="0.499999" y1="4.69501E-06" x2="0.499999" y2="1"><stop offset="0" stop-color="#800080" /><stop offset="1" stop-color="#5B005B" /></linearGradient><path fill-rule="evenodd" d="M2,4.160000000000025L2,10.841000000000008L7.7420000000000044,14L8.2579999999999956,14L14,10.841000000000008L14,4.160000000000025L8.2579999999999956,1L7.7420000000000044,1L2,4.160000000000025Z" fill="url(#F115)" /><linearGradient id="F215" x1="0.0278305" y1="0.5" x2="1.01539" y2="0.5"><stop offset="0" stop-color="#FD59FF" /><stop offset="1" stop-color="#FF9CFF" /></linearGradient><path fill-rule="evenodd" d="M3,5.25L3,10.25L8,13L8,8L3,5.25Z" fill="url(#F215)" /><linearGradient id="F315" x1="0.0278305" y1="0.5" x2="1.01539" y2="0.5"><stop offset="0" stop-color="#FD33FF" /><stop offset="1" stop-color="#FFA3FF" /></linearGradient><path fill-rule="evenodd" d="M13,5.25L8,8L8,13L13,10.25L13,5.25Z" fill="url(#F315)" /><path fill-rule="evenodd" d="M12.544899999999998,4.5L7.9998999999999967,7L3.454899999999995,4.5L2.9998999999999967,4.7509999999999764L2.9998999999999967,5.25L7.9998999999999967,8L12.999899999999997,5.25L12.999899999999997,4.7509999999999764L12.544899999999998,4.5Z" fill="#FFFFFF" /><linearGradient id="F515" x1="0.499999" y1="0.0277466" x2="0.499999" y2="1.01531"><stop offset="0" stop-color="#FD54FF" /><stop offset="1" stop-color="#FFBFFF" /></linearGradient><path fill-rule="evenodd" d="M8,7L12.545000000000002,4.5L8,2L3.4549999999999983,4.5L8,7Z" fill="url(#F515)" /></g></svg><svg width="16" height="16" viewBox="0,0,16,16" x="108" y="18"><svg ti:v="1" width="16" height="16" viewBox="0,0,16,16" xmlns="http://www.w3.org/2000/svg" xmlns:ti="urn:schemas-jetbrains-com:tisvg"><g><path fill-rule="evenodd" d="M0,0L16,0L16,16L0,16Z" fill="#FFFFFF" opacity="0" /><linearGradient id="F1016" x1="0.499999" y1="4.69501E-06" x2="0.499999" y2="1"><stop offset="0" stop-color="#800080" /><stop offset="1" stop-color="#5B005B" /></linearGradient><path fill-rule="evenodd" d="M2,4.160000000000025L2,10.841000000000008L7.7420000000000044,14L8.2579999999999956,14L14,10.841000000000008L14,4.160000000000025L8.2579999999999956,1L7.7420000000000044,1L2,4.160000000000025Z" fill="url(#F1016)" /><linearGradient id="F2016" x1="0.0278305" y1="0.5" x2="1.01539" y2="0.5"><stop offset="0" stop-color="#FD59FF" /><stop offset="1" stop-color="#FF9CFF" /></linearGradient><path fill-rule="evenodd" d="M3,5.25L3,10.25L8,13L8,8L3,5.25Z" fill="url(#F2016)" /><linearGradient id="F3016" x1="0.0278305" y1="0.5" x2="1.01539" y2="0.5"><stop offset="0" stop-color="#FD33FF" /><stop offset="1" stop-color="#FFA3FF" /></linearGradient><path fill-rule="evenodd" d="M13,5.25L8,8L8,13L13,10.25L13,5.25Z" fill="url(#F3016)" /><path fill-rule="evenodd" d="M12.544899999999998,4.5L7.9998999999999967,7L3.454899999999995,4.5L2.9998999999999967,4.7509999999999764L2.9998999999999967,5.25L7.9998999999999967,8L12.999899999999997,5.25L12.999899999999997,4.7509999999999764L12.544899999999998,4.5Z" fill="#FFFFFF" /><linearGradient id="F5016" x1="0.499999" y1="0.0277466" x2="0.499999" y2="1.01531"><stop offset="0" stop-color="#FD54FF" /><stop offset="1" stop-color="#FFBFFF" /></linearGradient><path fill-rule="evenodd" d="M8,7L12.545000000000002,4.5L8,2L3.4549999999999983,4.5L8,7Z" fill="url(#F5016)" /></g></svg><svg ti:v="1" width="16" height="16" viewBox="0,0,16,16" xmlns="http://www.w3.org/2000/svg" xmlns:ti="urn:schemas-jetbrains-com:tisvg"><g><path fill-rule="evenodd" d="M0,0L16,0L16,16L0,16Z" fill="#FFFFFF" opacity="0" /><linearGradient id="F1116" x1="0.499996" y1="4.35965E-06" x2="0.499996" y2="1"><stop offset="0" stop-color="#805D00" /><stop offset="1" stop-color="#563D00" /></linearGradient><path fill-rule="evenodd" d="M12.086000000000013,9L9,12.086000000000013L9,12.913999999999987L12.086000000000013,16L12.913999999999987,16L16,12.913999999999987L16,12.086000000000013L12.913999999999987,9L12.086000000000013,9Z" fill="url(#F1116)" /><linearGradient id="F2116" x1="0.499994" y1="6.10352E-06" x2="0.499994" y2="1.00001"><stop offset="0" stop-color="#FFFF80" /><stop offset="1" stop-color="#FFC300" /></linearGradient><path fill-rule="evenodd" d="M12.5,10L15,12.5L12.5,15L10,12.5L12.5,10Z" fill="url(#F2116)" /></g></svg></svg><svg ti:v="1" width="16" height="16" viewBox="0,0,16,16" xmlns="http://www.w3.org/2000/svg" xmlns:ti="urn:schemas-jetbrains-com:tisvg" x="126" y="18"><g><path fill-rule="evenodd" d="M0,0L16,0L16,16L0,16Z" fill="#FFFFFF" opacity="0" /><linearGradient id="F117" x1="0.499999" y1="4.69501E-06" x2="0.499999" y2="1"><stop offset="0" stop-color="#800080" /><stop offset="1" stop-color="#5B005B" /></linearGradient><path fill-rule="evenodd" d="M2,4.160000000000025L2,10.841000000000008L7.7420000000000044,14L8.2579999999999956,14L14,10.841000000000008L14,4.160000000000025L8.2579999999999956,1L7.7420000000000044,1L2,4.160000000000025Z" fill="url(#F117)" /><linearGradient id="F217" x1="0.0278305" y1="0.5" x2="1.01539" y2="0.5"><stop offset="0" stop-color="#FD59FF" /><stop offset="1" stop-color="#FF9CFF" /></linearGradient><path fill-rule="evenodd" d="M3,5.25L3,10.25L8,13L8,8L3,5.25Z" fill="url(#F217)" /><linearGradient id="F317" x1="0.0278305" y1="0.5" x2="1.01539" y2="0.5"><stop offset="0" stop-color="#FD33FF" /><stop offset="1" stop-color="#FFA3FF" /></linearGradient><path fill-rule="evenodd" d="M13,5.25L8,8L8,13L13,10.25L13,5.25Z" fill="url(#F317)" /><path fill-rule="evenodd" d="M12.544899999999998,4.5L7.9998999999999967,7L3.454899999999995,4.5L2.9998999999999967,4.7509999999999764L2.9998999999999967,5.25L7.9998999999999967,8L12.999899999999997,5.25L12.999899999999997,4.7509999999999764L12.544899999999998,4.5Z" fill="#FFFFFF" /><linearGradient id="F517" x1="0.499999" y1="0.0277466" x2="0.499999" y2="1.01531"><stop offset="0" stop-color="#FD54FF" /><stop offset="1" stop-color="#FFBFFF" /></linearGradient><path fill-rule="evenodd" d="M8,7L12.545000000000002,4.5L8,2L3.4549999999999983,4.5L8,7Z" fill="url(#F517)" /></g></svg></svg>